<svg viewBox="0 0 766.615 766.615">
	<g>
		<g>
			<path d="M545.308,766.615h-324c-79.406,0-144-64.595-144-144V418.67c0-46.203,22.752-89.527,60.233-116.434
			c-3.62-17.116-5.431-34.19-5.431-50.976C132.11,112.731,244.8,0,383.328,0c138.528,0,251.26,112.731,251.26,251.26
			c0,16.745-1.811,33.819-5.431,50.935c37.439,26.908,60.15,70.272,60.15,116.435v203.945
			C689.308,701.979,624.713,766.615,545.308,766.615z M383.328,41.143c-115.858,0-210.075,94.258-210.075,210.117
			c0,17.979,2.551,36.453,7.57,54.967c2.468,9.093-1.522,18.679-9.71,23.287c-32.503,18.35-52.663,52.499-52.663,89.157v203.945
			c0,56.735,46.121,102.857,102.857,102.857h324c56.736,0,102.857-46.122,102.857-102.857V418.67
			c0-36.617-20.119-70.766-52.54-89.157c-8.188-4.608-12.178-14.194-9.709-23.246c5.019-18.514,7.57-36.987,7.57-54.967
			C593.444,135.401,499.187,41.143,383.328,41.143z M544.032,315.813H221.308c-9.175,0-18.432-6.007-20.983-14.812
			c-5.554-19.337-8.105-35.959-8.105-52.334c0-104.667,85.125-189.792,189.792-189.792c104.708,0,189.874,85.125,189.874,189.792
			c0,16.251-2.551,32.874-8.105,52.251C561.312,309.683,553.207,315.813,544.032,315.813z M382.012,99.978
			c-81.957,0-148.649,66.692-148.649,148.649c0,8.27,0.905,16.787,2.798,26.126l291.744-0.083c1.934-9.38,2.839-17.856,2.839-26.043
			C530.743,166.67,464.01,99.978,382.012,99.978z"/>
			<path d="M455.328,656.105h-144c-6.624,0-12.836-3.168-16.704-8.599c-3.867-5.39-4.896-12.302-2.756-18.556l29.252-86.523
			c-16.004-16.005-25.179-37.77-25.179-60.81c0-47.479,38.633-86.152,86.153-86.152c47.521,0,86.071,38.715,86.071,86.193
			c0,22.094-8.353,42.789-23.328,58.67l29.993,88.622c2.14,6.254,1.069,13.166-2.757,18.556
			C468.165,652.938,461.952,656.105,455.328,656.105z M340.005,614.963h86.605l-25.097-74.346
			c-2.839-8.435,0.041-17.773,7.199-23.122c11.644-8.64,18.309-21.724,18.309-35.877c0-24.85-20.159-45.01-45.01-45.01
			s-45.01,20.16-45.01,45.01c0,14.812,7.364,28.677,19.666,37.07c7.611,5.225,10.862,14.853,7.858,23.574L340.005,614.963z"/>
		</g>
	</g>
</svg>
